<?xml version="1.0" encoding="UTF-8"?>
<svg
	width="512px"
	height="512px"
	viewBox="0 0 512 512"
	version="1.1"
	xmlns="http://www.w3.org/2000/svg"
	xmlns:xlink="http://www.w3.org/1999/xlink"
>
	<title>logo</title>
	<g id="logo" stroke="none" stroke-width="1" fill="none" fill-rule="evenodd">
		<g
			id="shop"
			transform="translate(75.000000, 51.000000)"
			fill-rule="nonzero"
		>
			<path
				d="M317.934617,79.1407899 C317.649423,77.0652399 315.834742,75.9137549 314.328563,75.7883999 C312.834039,75.6630449 283.550967,75.2184799 283.550967,75.2184799 C283.550967,75.2184799 259.060654,51.4554874 256.641308,49.0381224 C254.222647,46.6208259 249.497757,47.3505564 247.660453,47.8978714 C247.637829,47.9093109 243.061706,49.3232194 235.358738,51.7063344 C234.069196,47.5330404 232.174304,42.4018424 229.469764,37.2479024 C220.751479,20.6230209 207.981526,11.8316624 192.552279,11.8089204 C192.529656,11.8089204 192.518001,11.8089204 192.495378,11.8089204 C191.422474,11.8089204 190.361225,11.9115334 189.289007,12.0027069 C188.832423,11.4553919 188.375839,10.9195164 187.896631,10.3949434 C181.174701,3.21138268 172.55925,-0.289194053 162.231267,0.0186739223 C142.306108,0.588800587 122.46116,14.9673869 106.370347,40.5090504 C95.0496702,58.4794089 86.4335336,81.0567349 83.9915636,98.5365649 C61.1106068,105.61741 45.1111103,110.56585 44.7573605,110.680245 C33.2085291,114.30595 32.8433991,114.65941 31.3370148,125.537895 C30.2186584,133.75858 0,367.237405 0,367.237405 L253.240923,411 L363,383.736315 C363,383.736315 318.21981,81.2163399 317.934617,79.1407899 Z M222.679964,55.6287814 C216.848578,57.4303999 210.217827,59.4828654 203.028344,61.7063754 C202.880263,51.6265319 201.681901,37.6014309 196.980321,25.4804929 C212.101065,28.3425599 219.541463,45.4349539 222.679964,55.6287814 Z M189.779183,65.8112379 C176.507399,69.9158949 162.025598,74.3971649 147.498551,78.8900799 C151.583811,63.2570784 159.332713,47.6926454 168.850363,37.4873784 C172.38786,33.6903549 177.340356,29.4600004 183.20602,27.0426354 C188.717934,38.5363874 189.916295,54.8078089 189.779183,65.8112379 Z M162.630263,13.2683814 C167.30922,13.1657684 171.2464,14.1920354 174.613192,16.4041059 C169.226736,19.1977414 164.022639,23.2114304 159.138699,28.4451729 C146.482548,42.0142009 136.782539,63.0746629 132.913916,83.3939549 C120.851462,87.1224099 109.051578,90.7830499 98.187485,94.1354399 C105.046528,62.1510774 131.87529,14.1577854 162.630263,13.2683814 Z"
				id="Shape"
				fill="#FAAD3F"
			></path>
			<path
				d="M313.777904,76.2733658 C312.266493,76.1481837 282.652534,75.7042319 282.652534,75.7042319 C282.652534,75.7042319 257.886185,51.9739497 255.439501,49.5599877 C254.527801,48.6603868 253.293019,48.1935192 252,48 L252.011786,411 L363,383.785552 C363,383.785552 317.713814,81.6938184 317.425398,79.6211315 C317.136288,77.5484445 315.290009,76.3985478 313.777904,76.2733658 Z"
				id="Path"
				fill="#F48120"
			></path>
		</g>
		<path
			d="M233.939799,349.336119 C235.020699,344.889184 234.65061,339.615274 232.946488,335.255553 C231.204173,331.668856 228.702639,329.280237 225.993311,328.587827 L168.381269,321.609746 C168.050166,321.577569 167.719062,321.138464 167.387958,321.106939 C167.231632,320.948276 167.139631,320.714019 167.139631,320.474475 C167.139631,320.234932 167.231632,320.017675 167.387958,319.887907 C167.719062,319.103711 168.050166,318.724664 168.712373,318.780531 L226.655518,322.928388 C234.145594,322.264596 240.602902,314.832676 243.541806,303.340422 L246.852843,288.736749 C246.852843,288.173356 247.183946,287.594771 246.852843,287.046571 C243.153988,259.578797 228.959951,242.63452 212.099735,244.97659 C195.23952,247.39397 179.817965,264.233602 174.341136,285.305762 C170.880977,282.449288 166.660406,281.344753 162.421403,282.099584 C154.408834,283.782985 148.08405,291.35852 147.190634,300.351106 C146.970165,302.574119 147.082056,304.825444 147.521737,307.02355 C134.433344,306.976912 124.01155,317.316641 124.013376,330.378231 C123.95904,331.58999 124.070417,332.830289 124.344479,334.068425 C124.375949,334.608528 124.802777,335.11065 125.33779,335.237059 L231.622073,356.334597 C232.284281,356.480062 232.946488,356.091446 232.946488,355.022939 L233.939799,349.336119 Z M251.421195,288.17661 C268.816069,288.487815 282.890357,315.146935 283,347.982111 C282.90824,353.485953 282.461762,358.885607 281.670366,364.049571 C281.709594,364.573509 281.617228,365.077765 281.421052,365.4103 C281.324635,365.57361 281.208674,365.686056 281.083063,365.743311 L236.30429,357.035998 C235.992578,356.615288 235.895526,355.924518 236.130405,355.575043 L236.795222,350.671817 C239.745707,339.384267 246.228463,331.985249 253.748054,331.425989 L266.379576,331.688453 C267.044393,331.763465 267.376802,331.196475 267.70921,330.023523 C267.866152,329.826221 267.958517,329.499773 267.958517,329.142519 C267.958517,328.785265 267.866152,328.439215 267.70921,328.208602 C267.598407,328.197088 267.487605,328.118389 267.376802,328.017338 L267.044393,327.6921 C266.933591,327.591245 266.822788,327.512796 266.711985,327.501439 L254.412871,325.065787 C251.692867,324.36672 249.181474,321.832153 247.432294,318.042171 C245.721456,313.508673 245.349909,307.943889 246.435068,303.052513 L248.761927,289.314137 C249.094336,288.739835 249.426744,288.16454 249.759153,288.166537 L251.421195,288.17661 Z"
			id="flare"
			fill="#FFFFFF"
			fill-rule="nonzero"
		></path>
	</g>
</svg>
